<?xml version="1.0" encoding="utf-8"?>
<!-- Generator: Adobe Illustrator 21.0.0, SVG Export Plug-In . SVG Version: 6.00 Build 0)  -->
<svg version="1.1" id="Layer_1" xmlns="http://www.w3.org/2000/svg" xmlns:xlink="http://www.w3.org/1999/xlink" x="0px" y="0px"
	 viewBox="0 0 143.5706 16.3811" style="enable-background:new 0 0 143.5706 16.3811;" xml:space="preserve">
<g>
	<path d="M0,8.1904c0-1.3193,0.2096-2.5132,0.6279-3.5832c0.4183-1.0716,0.978-1.9321,1.6781-2.5846S3.7808,0.87,4.6294,0.5223
		C5.4772,0.1746,6.3575,0,7.2688,0c1.6519,0,3.0744,0.4128,4.2667,1.2383c1.1931,0.8271,1.9408,2.0067,2.2449,3.5403
		c0,0.1476-0.0849,0.2223-0.254,0.2223h-1.4479c-0.1326,0-0.2246-0.0746-0.2762-0.2223c-0.2747-1.0002-0.8152-1.7432-1.6209-2.229
		C9.3755,2.0655,8.4047,1.8226,7.2688,1.8226c-1.4773,0-2.7251,0.5652-3.7427,1.6955C2.5092,4.6469,2.0004,6.2043,2.0004,8.1904
		c0,2.0416,0.4866,3.6134,1.459,4.7151c0.9732,1.1018,2.3171,1.6527,4.0325,1.6527c2.1552,0,3.688-0.7652,4.5993-2.2957v-2.383
		H7.5569c-0.1484,0-0.2223-0.0778-0.2223-0.2334V8.2793c0-0.1476,0.0738-0.2223,0.2223-0.2223h6.2234
		c0.1484,0,0.2223,0.0746,0.2223,0.2223v3.9674c0,0.3477-0.0738,0.6366-0.2223,0.8668c-1.4074,2.1861-3.4744,3.2752-6.2011,3.2673
		c-2.1409,0-3.9396-0.7176-5.3954-2.1496C0.7279,12.796,0,10.7829,0,8.1904z"/>
	<path d="M16.8697,15.9362V4.9565c0-0.1476,0.0738-0.2223,0.2223-0.2223h1.3225c0.1484,0,0.2262,0.0746,0.2334,0.2223v1.2558
		c0.8375-1.1415,1.9448-1.7114,3.3228-1.7114c0.5334,0,1.1629,0.1222,1.8892,0.3667c0.1707,0.0587,0.2596,0.1969,0.2667,0.4112
		v1.3669c0,0.1699-0.0818,0.2524-0.2445,0.2445C22.9558,6.4234,22.1334,6.19,21.415,6.19c-0.8073,0-1.4709,0.3366-1.9893,1.0113
		s-0.7779,1.5193-0.7779,2.5338v6.2011c0,0.1476-0.0778,0.2223-0.2334,0.2223H17.092
		C16.9436,16.1585,16.8697,16.0839,16.8697,15.9362z"/>
	<path d="M25.9603,12.7626c0-1.2161,0.4334-2.1544,1.3002-2.8148c0.8668-0.6604,1.9742-0.9907,3.3228-0.9907
		c0.9708,0,2.0408,0.1683,3.2117,0.5033V8.8286c0-0.8494-0.2389-1.5019-0.7168-1.9559C32.6004,6.417,31.9209,6.19,31.039,6.19
		c-1.3336,0-2.2298,0.5779-2.6894,1.7336c-0.0445,0.1334-0.1484,0.2-0.3112,0.2h-1.4558c-0.104,0-0.1572-0.046-0.1611-0.1381
		c-0.004-0.0937,0.0016-0.1699,0.0167-0.2286c0.2445-0.9414,0.7573-1.7194,1.5392-2.3338c0.7819-0.6144,1.8019-0.9224,3.0617-0.9224
		c1.3336,0,2.4227,0.3683,3.2673,1.1034s1.2669,1.694,1.2669,2.8767v5.4788c0,0.8414,0.1294,1.4987,0.3874,1.975
		c0.031,0.0603,0.046,0.0968,0.046,0.1111c0,0.0746-0.0595,0.1127-0.1786,0.1127h-1.8099c-0.1484,0-0.2231-0.0746-0.2231-0.2239
		V14.736c-0.3628,0.508-0.8764,0.9081-1.5392,1.2034c-0.6628,0.2937-1.3947,0.4413-2.1948,0.4413
		c-1.0891,0-2.0448-0.3175-2.8672-0.951C26.3715,14.7948,25.9603,13.9057,25.9603,12.7626z M27.8273,12.6531
		c0,0.6493,0.2127,1.1526,0.639,1.5066s1.024,0.5318,1.7948,0.5318c1.0002,0,1.8392-0.3143,2.5171-0.9414
		c0.6779-0.6287,1.0169-1.4971,1.0169-2.6052c-0.9708-0.3318-2.0043-0.4985-3.1006-0.4985c-0.8668,0-1.5614,0.1683-2.0837,0.5049
		C28.0885,11.4862,27.8273,11.9879,27.8273,12.6531z"/>
	<path d="M38.9515,15.9362V4.9565c0-0.1476,0.0738-0.2223,0.2223-0.2223h1.3225c0.1484,0,0.2262,0.0746,0.2334,0.2223v1.3002
		c0.9708-1.1701,2.2298-1.7559,3.7785-1.7559c1.2153,0,2.1782,0.3651,2.8894,1.0939c0.7112,0.7303,1.0669,1.7479,1.0669,3.0514
		v7.2902c0,0.1476-0.0778,0.2223-0.2334,0.2223h-1.3114c-0.1484,0-0.2262-0.0746-0.2334-0.2223V8.9239
		c0-1.8226-0.8629-2.7338-2.5894-2.7338c-1.0002,0-1.8114,0.3556-2.4338,1.0669c-0.6223,0.7112-0.9335,1.7368-0.9335,3.0783v5.601
		c0,0.1476-0.0778,0.2223-0.2334,0.2223h-1.3225C39.0254,16.1585,38.9515,16.0839,38.9515,15.9362z"/>
	<path d="M50.687,6.1995V4.958c0-0.1492,0.0778-0.2239,0.2334-0.2239h2.0226V1.4669c0-0.1476,0.0738-0.2223,0.2223-0.2223h1.3225
		c0.1484,0,0.2262,0.0746,0.2334,0.2223v3.2673h3.7785c0.1484,0,0.2223,0.0746,0.2223,0.2239v1.2415
		c0,0.1492-0.0738,0.2239-0.2223,0.2239h-3.7785v6.3393c0,1.2859,0.6001,1.9289,1.8003,1.9289c0.8073,0,1.5265-0.1143,2.1559-0.3429
		c0.0595-0.0302,0.1111-0.0445,0.1556-0.0445c0.104,0,0.1596,0.0778,0.1667,0.2334v1.0732c0,0.2159-0.0627,0.3461-0.1889,0.3905
		c-0.6819,0.2604-1.4931,0.3874-2.4338,0.3794c-1.074,0-1.9154-0.3048-2.5227-0.916c-0.6073-0.6096-0.9113-1.4558-0.9113-2.537
		V6.4234h-2.0226C50.7648,6.4234,50.687,6.3488,50.687,6.1995z"/>
	<path d="M65.712,15.9362c0-0.0445,0.0071-0.0921,0.0222-0.1445l5.6344-15.3361c0.0445-0.1476,0.1222-0.2254,0.2334-0.2334h1.9559
		c0.1032,0,0.181,0.0778,0.2334,0.2334l5.6344,15.3361c0.0143,0.0445,0.0254,0.0921,0.0333,0.1445
		c0,0.1476-0.0857,0.2223-0.2556,0.2223h-1.5225c-0.1334,0-0.2254-0.0746-0.2778-0.2223l-1.5669-4.4008h-6.5123l-1.567,4.4008
		c-0.0444,0.1476-0.1373,0.2223-0.2778,0.2223h-1.5225C65.7937,16.1585,65.712,16.0839,65.712,15.9362z M69.9905,9.7129h5.1787
		l-2.5894-7.1902L69.9905,9.7129z"/>
	<path d="M81.526,15.9362V4.9565c0-0.1476,0.0746-0.2223,0.2223-0.2223h1.3225c0.1477,0,0.2254,0.0746,0.2334,0.2223v1.2558
		c0.8367-1.1415,1.9448-1.7114,3.3228-1.7114c0.5334,0,1.1637,0.1222,1.8892,0.3667c0.1699,0.0587,0.2588,0.1969,0.2667,0.4112
		v1.3669c0,0.1699-0.081,0.2524-0.2445,0.2445C87.6128,6.4234,86.7904,6.19,86.0713,6.19c-0.8081,0-1.4701,0.3366-1.9893,1.0113
		s-0.7779,1.5193-0.7779,2.5338v6.2011c0,0.1476-0.0778,0.2223-0.2334,0.2223h-1.3225
		C81.6006,16.1585,81.526,16.0839,81.526,15.9362z"/>
	<path d="M91.35,15.9362V4.9565c0-0.1476,0.0746-0.2223,0.2223-0.2223h1.3225c0.1476,0,0.2254,0.0746,0.2334,0.2223v1.2558
		c0.2445-0.4668,0.6604-0.8684,1.251-1.205c0.5874-0.3382,1.1939-0.5064,1.8162-0.5064c1.5924,0,2.656,0.6144,3.1895,1.8448
		c0.3191-0.5477,0.7779-0.9922,1.378-1.3336c0.6001-0.3413,1.2336-0.5112,1.9004-0.5112c2.2591,0,3.3895,1.1701,3.3895,3.5118
		v7.9237c0,0.1476-0.0778,0.2223-0.2334,0.2223h-1.3113c-0.1476,0-0.2254-0.0746-0.2334-0.2223V8.3237
		c0-1.4304-0.689-2.1417-2.067-2.1337c-0.7414,0-1.3637,0.3604-1.867,1.0843c-0.5033,0.7208-0.7557,1.6797-0.7557,2.872v5.7899
		c0,0.1476-0.0746,0.2223-0.2223,0.2223h-1.3225c-0.1476,0-0.2254-0.0746-0.2334-0.2223V8.3237c0-1.4304-0.689-2.1417-2.067-2.1337
		c-0.7414,0-1.3606,0.3604-1.8623,1.0843c-0.4985,0.7208-0.7493,1.6797-0.7493,2.872v5.7899c0,0.1476-0.0778,0.2223-0.2334,0.2223
		h-1.3225C91.4246,16.1585,91.35,16.0839,91.35,15.9362z"/>
	<path d="M110.4265,14.7424c-1.1018-1.0923-1.6511-2.5259-1.6511-4.3024c0-1.7749,0.5493-3.2085,1.6511-4.3008
		c1.0986-1.0923,2.4846-1.6384,4.1563-1.6384c1.6701,0,3.0545,0.5461,4.1563,1.6384c1.0986,1.0923,1.6495,2.5259,1.6495,4.3008
		c0,1.7765-0.5509,3.2101-1.6495,4.3024c-1.1018,1.0923-2.4862,1.6384-4.1563,1.6384
		C112.9111,16.3808,111.5251,15.8346,110.4265,14.7424z M111.7378,7.3617c-0.7303,0.7795-1.0954,1.8067-1.0954,3.0783
		c0,1.2732,0.3651,2.3004,1.0954,3.0799c0.7287,0.7811,1.6765,1.1716,2.845,1.1716c1.1653,0,2.1147-0.3905,2.845-1.1716
		c0.7287-0.7795,1.0938-1.8067,1.0938-3.0799c0-1.2717-0.3651-2.2988-1.0938-3.0783c-0.7303-0.7811-1.6797-1.1716-2.845-1.1716
		C113.4143,6.19,112.4666,6.5806,111.7378,7.3617z"/>
	<path d="M123.1558,12.2467V4.9565c0-0.1476,0.0778-0.2223,0.2334-0.2223h1.3225c0.1477,0,0.2223,0.0746,0.2223,0.2223v7.0045
		c0,1.821,0.8668,2.7307,2.6005,2.7307c1.0002,0,1.8114-0.3572,2.4338-1.0716c0.6223-0.7128,0.9335-1.7368,0.9335-3.0688V4.9565
		c0-0.1476,0.0746-0.2223,0.2223-0.2223h1.3225c0.1476,0,0.2254,0.0746,0.2334,0.2223v10.9798c0,0.1476-0.0778,0.2223-0.2334,0.2223
		h-1.3225c-0.1476,0-0.2223-0.0746-0.2223-0.2239v-1.3098c-0.97,1.178-2.2306,1.7638-3.7785,1.7559
		c-1.2145,0-2.1798-0.3636-2.8958-1.0891C123.513,14.5661,123.1558,13.5501,123.1558,12.2467z"/>
	<path d="M136.3138,15.9362V4.9565c0-0.1476,0.0746-0.2223,0.2223-0.2223h1.3225c0.1476,0,0.2254,0.0746,0.2334,0.2223v1.2558
		c0.8367-1.1415,1.9448-1.7114,3.3228-1.7114c0.5334,0,1.1637,0.1222,1.8892,0.3667c0.1699,0.0587,0.2588,0.1969,0.2667,0.4112
		v1.3669c0,0.1699-0.081,0.2524-0.2445,0.2445c-0.9256-0.4668-1.7479-0.7001-2.4671-0.7001c-0.8081,0-1.4701,0.3366-1.9893,1.0113
		c-0.5191,0.6747-0.7779,1.5193-0.7779,2.5338v6.2011c0,0.1476-0.0778,0.2223-0.2334,0.2223h-1.3225
		C136.3884,16.1585,136.3138,16.0839,136.3138,15.9362z"/>
</g>
</svg>
